<svg xmlns="http://www.w3.org/2000/svg" viewBox="0 0 24 24" fill="currentColor" width="24" height="24">
  <path d="M12 0C5.37 0 0 5.37 0 12c0 5.3 3.438 9.8 8.207 11.387.6.11.793-.26.793-.577v-2.16c-3.338.726-4.043-1.61-4.043-1.61-.546-1.385-1.333-1.754-1.333-1.754-1.09-.744.082-.729.082-.729 1.205.085 1.838 1.237 1.838 1.237 1.07 1.835 2.807 1.305 3.493.998.108-.776.418-1.305.76-1.606-2.665-.304-5.467-1.332-5.467-5.93 0-1.31.465-2.38 1.235-3.22-.123-.303-.536-1.523.117-3.176 0 0 1.008-.323 3.3 1.23a11.52 11.52 0 0 1 6 0c2.292-1.553 3.3-1.23 3.3-1.23.653 1.653.24 2.873.117 3.176.77.84 1.235 1.91 1.235 3.22 0 4.61-2.807 5.625-5.48 5.922.43.37.823 1.103.823 2.222v3.293c0 .32.193.693.8.577C20.56 21.797 24 17.298 24 12 24 5.37 18.63 0 12 0z" />
</svg>
