<svg xmlns="http://www.w3.org/2000/svg" viewBox="0 0 24 24" fill="currentColor" width="24" height="24">
  <path d="M22.23 0H1.77C.79 0 0 .77 0 1.72v20.56C0 23.22.8 24 1.77 24h20.46c.97 0 1.77-.78 1.77-1.72V1.72C24 .78 23.2 0 22.23 0zM7.19 20.45H3.56V9h3.63v11.45zm-1.8-13c-1.16 0-2.1-.94-2.1-2.1 0-1.15.94-2.1 2.1-2.1 1.15 0 2.1.95 2.1 2.1 0 1.15-.94 2.1-2.1 2.1zm15.44 13h-3.63v-5.78c0-1.38-.03-3.15-1.92-3.15-1.92 0-2.22 1.5-2.22 3.05v5.88h-3.63V9h3.48v1.56h.05c.49-.93 1.7-1.92 3.49-1.92 3.73 0 4.42 2.45 4.42 5.63v6.19z" />
</svg>
