<svg xmlns="http://www.w3.org/2000/svg" viewBox="0 0 24 24" fill="currentColor" width="24" height="24">
  <path d="M24 4.557a9.935 9.935 0 0 1-2.825.775A4.938 4.938 0 0 0 23.338 3c-.955.567-2.007.977-3.127 1.2A4.917 4.917 0 0 0 16.616 2c-2.72 0-4.924 2.203-4.924 4.924 0 .387.045.765.126 1.126A13.978 13.978 0 0 1 1.67 3.149a4.926 4.926 0 0 0-.666 2.477c0 1.71.87 3.213 2.189 4.095a4.9 4.9 0 0 1-2.228-.616v.061c0 2.39 1.694 4.38 3.947 4.838-.415.111-.85.171-1.293.171-.316 0-.623-.03-.925-.086.623 1.941 2.432 3.353 4.577 3.391A9.873 9.873 0 0 1 0 19.54a13.909 13.909 0 0 0 7.548 2.211c9.057 0 14.001-7.49 14.001-13.981 0-.213 0-.426-.015-.637A9.932 9.932 0 0 0 24 4.557z" />
</svg>
